<svg xmlns="http://www.w3.org/2000/svg" viewBox="0 0 240 240" role="img" aria-labelledby="title desc">
  <title id="title">Psychotherapist Assistant portal logo</title>
  <desc id="desc">Layered teal and warm gold emblem with a calm doorway motif and PA monogram.</desc>
  <defs>
    <linearGradient id="panel" x1="0" y1="0" x2="1" y2="1">
      <stop offset="0%" stop-color="#fdf7ef"/>
      <stop offset="100%" stop-color="#efe2cf"/>
    </linearGradient>
    <linearGradient id="accent" x1="0" y1="0" x2="1" y2="1">
      <stop offset="0%" stop-color="#0f766a"/>
      <stop offset="100%" stop-color="#145b63"/>
    </linearGradient>
    <linearGradient id="warm" x1="0" y1="0" x2="1" y2="1">
      <stop offset="0%" stop-color="#d88c29"/>
      <stop offset="100%" stop-color="#b86d21"/>
    </linearGradient>
    <filter id="shadow" x="-20%" y="-20%" width="140%" height="140%">
      <feDropShadow dx="0" dy="16" stdDeviation="18" flood-color="#5a4430" flood-opacity="0.18"/>
    </filter>
  </defs>
  <rect x="24" y="24" width="192" height="192" rx="52" fill="url(#panel)" filter="url(#shadow)"/>
  <circle cx="172" cy="72" r="24" fill="#d88c29" opacity="0.14"/>
  <circle cx="70" cy="170" r="34" fill="#0f766a" opacity="0.12"/>
  <path d="M77 58h52c34 0 54 21 54 52 0 24-12 42-33 50l30 26-18 18-36-31H77z" fill="url(#accent)" opacity="0.96"/>
  <path d="M93 76h31c22 0 36 12 36 32 0 21-15 33-37 33H93z" fill="#f7f1e8" opacity="0.96"/>
  <path d="M64 69c-12 14-18 31-18 51 0 19 6 36 18 50" fill="none" stroke="url(#warm)" stroke-width="16" stroke-linecap="round"/>
  <path d="M70 95h19c15 0 24 7 24 20s-9 20-24 20H70z" fill="#1f2928" opacity="0.94"/>
  <path d="M122 98h16l19 48h-17l-4-11h-18l-4 11H98zm10 14-8 22h15z" fill="#1f2928" opacity="0.94"/>
</svg>
