<svg xmlns="http://www.w3.org/2000/svg" viewBox="0 0 340 110" role="img" aria-labelledby="title desc">
  <title id="title">AARE inspired therapy portal logo</title>
  <desc id="desc">Soft turquoise wave and bird mark with light, airy wordmark inspired by the provided therapy site.</desc>
  <defs>
    <linearGradient id="aareAccent" x1="0" y1="0" x2="1" y2="1">
      <stop offset="0%" stop-color="#67cddb"/>
      <stop offset="100%" stop-color="#35b6cb"/>
    </linearGradient>
  </defs>
  <g fill="none" stroke="url(#aareAccent)" stroke-linecap="round" stroke-linejoin="round">
    <path d="M50 30c7-10 18-16 31-16 9 0 18 3 25 9" stroke-width="5.6"/>
    <path d="M96 24c5 7 10 10 17 10 8 0 13-3 18-10" stroke-width="5.6"/>
    <path d="M116 18c5-9 13-14 23-14 11 0 18 6 24 17" stroke-width="5.6"/>
    <path d="M67 50c22 8 42 11 60 11 21 0 42-4 65-14" stroke-width="4.8"/>
    <path d="M165 24c8 2 13 6 16 14" stroke-width="4.8"/>
  </g>
  <circle cx="144" cy="20" r="4" fill="#67cddb"/>
  <text x="24" y="90" fill="#35b6cb" font-family="Trebuchet MS, Segoe UI, Arial, sans-serif" font-size="42" font-weight="600" letter-spacing="2">AARE</text>
  <text x="154" y="89" fill="#4faebb" font-family="Trebuchet MS, Segoe UI, Arial, sans-serif" font-size="26" font-weight="400">therapie</text>
  <path d="M24 98H137" stroke="#67cddb" stroke-width="3" stroke-linecap="round"/>
</svg>
